<svg id="Layer_1" data-name="Layer 1" xmlns="http://www.w3.org/2000/svg" viewBox="0 0 268.23 276" fill="#c7ac80"><path class="cls-1" d="M121.78,128.59c0-8.89-.88-17.1.17-25,2.5-18.79,18.93-32,36.92-30.7,19,1.4,33.1,16.07,33.36,35.42.27,20.78.5,41.58-.06,62.35-1.37,50.45-50.38,87.43-99.39,75.81-29.73-7.06-60.59-33.87-62.6-76.85-.39-8.26-4.2-12.32-10.38-12.15S9.86,162.3,10,170.1c.63,52.39,43,95.61,96.83,98.87,50.51,3.06,98.64-35.5,104.16-86.05,2.89-26.53,2.58-53.64,1.13-80.35C210.5,73.92,186.19,53,157.64,52.41c-28-.54-52.64,19.36-55.45,47.91-2.26,22.94-1.11,46.23-1.07,69.36,0,6.33,3.83,10.46,10.61,10.13s9.62-4.61,9.62-11.08c0-6.24,0-12.48,0-18.86h25.23c0,5.62,0,10.6,0,15.58-.11,21.44-15.25,37.54-35.29,37.55-19.74,0-35.19-15.74-35.47-36.72-.27-19.73-.74-39.5.1-59.19,1.46-34,17.58-59.41,49-73,30.73-13.32,59.88-8.32,85.39,13.44,17.93,15.3,26.68,35.47,27.63,59,.28,6.71,2.8,11.25,10.07,11.54,6.5.26,10.37-4.28,10.3-12.09a94.51,94.51,0,0,0-1-11A100.82,100.82,0,0,0,161,7c-49.1-2-94.69,31.2-102.25,79.33-4.59,29.28-3.63,59.8-1.91,89.58,1.63,28.3,29,49.14,57.31,47.46,29.08-1.72,52.23-25.07,52.8-53.82.4-19.72.16-39.46.09-59.19,0-7.67-4.13-12.42-10.25-12.33s-10,4.79-10.13,12.59c-.11,5.92,0,11.86,0,18Z"/><path class="cls-1" d="M121.78,128.59h24.81c0-6.16-.09-12.1,0-18,.16-7.8,4-12.5,10.13-12.59S167,102.64,167,110.31c.07,19.73.31,39.47-.09,59.19-.57,28.75-23.72,52.1-52.8,53.82C85.83,225,58.42,204.16,56.79,175.86c-1.72-29.78-2.68-60.3,1.91-89.58C66.26,38.15,111.85,4.93,161,7a100.82,100.82,0,0,1,96.31,88,94.51,94.51,0,0,1,1,11c.07,7.81-3.8,12.35-10.3,12.09-7.27-.29-9.79-4.83-10.07-11.54-.95-23.5-9.7-43.67-27.63-59-25.51-21.76-54.66-26.76-85.39-13.44-31.39,13.59-47.51,39-49,73-.84,19.69-.37,39.46-.1,59.19.28,21,15.73,36.73,35.47,36.72,20,0,35.18-16.11,35.29-37.55,0-5,0-10,0-15.58H121.35c0,6.38,0,12.62,0,18.86,0,6.47-2.88,10.75-9.62,11.08s-10.6-3.8-10.61-10.13c0-23.13-1.19-46.42,1.07-69.36,2.81-28.55,27.46-48.45,55.45-47.91,28.55.56,52.86,21.51,54.43,50.16,1.45,26.71,1.76,53.82-1.13,80.35C205.42,233.47,157.29,272,106.78,269,52.9,265.71,10.58,222.49,10,170.1c-.09-7.8,3.57-12.51,9.85-12.68s10,3.89,10.38,12.15c2,43,32.87,69.79,62.6,76.85,49,11.62,98-25.36,99.39-75.81.56-20.77.33-41.57.06-62.35-.26-19.35-14.35-34-33.36-35.42-18-1.32-34.42,11.91-36.92,30.7C120.9,111.49,121.78,119.7,121.78,128.59Z"/></svg>